# Blender v2.73 (sub 0) OBJ File: ''
# www.blender.org
mtllib knife.mtl
o Knife
v 0.600000 -1.000000 0.000000
v -0.600000 -1.000000 -0.000000
v 0.000000 -1.000000 -1.000000
v 0.599999 1.000000 0.000001
v -0.600000 1.000000 -0.000000
v 0.000000 1.000000 -1.000000
v 0.600000 -1.000000 1.000000
v -0.600000 -1.000000 1.000000
v 0.599999 1.000000 1.000001
v -0.600001 1.000000 1.000000
vt 0.900000 0.755357
vt 0.600000 0.755357
vt 0.600000 0.510714
vt 0.300000 0.755357
vt 0.000000 0.755357
vt 0.150000 0.510714
vt 0.500000 0.274948
vt 0.500000 0.000000
vt 1.000000 0.000000
vt 0.000000 0.235766
vt 0.500000 0.235766
vt 0.500000 0.510714
vt 0.750000 1.000000
vt 0.300000 0.510714
vt 0.600000 1.000000
vt 0.300000 1.000000
vt 0.000000 1.000000
vt 1.000000 0.274948
vt 1.000000 0.510714
vt 0.000000 0.000000
vt 0.900000 0.510714
vt 0.000000 0.510714
vn -0.000000 1.000000 -0.000000
vn 0.000000 -1.000000 0.000000
vn -0.857500 -0.000000 -0.514500
vn 0.857500 0.000000 -0.514500
vn -0.000000 0.000000 1.000000
vn -1.000000 -0.000000 -0.000000
vn 1.000000 0.000000 0.000000
usemtl Material
s off
f 4/1/1 5/2/1 10/3/1
f 1/4/2 2/5/2 3/6/2
f 5/7/3 6/8/3 3/9/3
f 4/10/4 1/11/4 3/12/4
f 4/1/1 6/13/1 5/2/1
f 9/14/5 10/3/5 8/15/5
f 1/4/2 7/16/2 8/17/2
f 2/18/6 8/19/6 10/12/6
f 4/10/7 9/20/7 7/8/7
f 9/21/1 4/1/1 10/3/1
f 2/18/3 5/7/3 3/9/3
f 6/22/4 4/10/4 3/12/4
f 7/16/5 9/14/5 8/15/5
f 2/5/2 1/4/2 8/17/2
f 5/7/6 2/18/6 10/12/6
f 1/11/7 4/10/7 7/8/7
